<svg xmlns="http://www.w3.org/2000/svg" xmlns:xlink="http://www.w3.org/1999/xlink"><defs><symbol viewBox="0 0 44 44" id="checked">
  <path d="m22,0c-12.2,0-22,9.8-22,22s9.8,22 22,22 22-9.8 22-22-9.8-22-22-22zm12.7,15.1l0,0-16,16.6c-0.2,0.2-0.4,0.3-0.7,0.3-0.3,0-0.6-0.1-0.7-0.3l-7.8-8.4-.2-.2c-0.2-0.2-0.3-0.5-0.3-0.7s0.1-0.5 0.3-0.7l1.4-1.4c0.4-0.4 1-0.4 1.4,0l.1,.1 5.5,5.9c0.2,0.2 0.5,0.2 0.7,0l13.4-13.9h0.1c0.4-0.4 1-0.4 1.4,0l1.4,1.4c0.4,0.3 0.4,0.9 0,1.3z" />
</symbol><symbol viewBox="0 0 21.825 21.825" id="down-arrow">
<path d="M16.791,13.254c0.444-0.444,1.143-0.444,1.587,0c0.429,0.444,0.429,1.143,0,1.587l-6.65,6.651
	c-0.206,0.206-0.492,0.333-0.809,0.333c-0.317,0-0.603-0.127-0.81-0.333l-6.65-6.651c-0.444-0.444-0.444-1.143,0-1.587
	s1.143-0.444,1.587,0l4.746,4.762V1.111C9.791,0.492,10.299,0,10.918,0c0.619,0,1.111,0.492,1.111,1.111v16.904L16.791,13.254z" />
<g>
</g>
<g>
</g>
<g>
</g>
<g>
</g>
<g>
</g>
<g>
</g>
<g>
</g>
<g>
</g>
<g>
</g>
<g>
</g>
<g>
</g>
<g>
</g>
<g>
</g>
<g>
</g>
<g>
</g>
</symbol><symbol viewBox="0 0 385 194.5" id="menu">
<g>
	<g id="menu_Menu_1_">
		<path d="M12,24.8h360.9c6.6,0,12-5.4,12-12c0-6.6-5.4-12-12-12H12c-6.6,0-12,5.4-12,12S5.4,24.8,12,24.8z" />
		<path d="M372.9,85H12C5.4,85,0,90.4,0,97s5.4,12,12,12h360.9c6.6,0,12-5.4,12-12S379.6,85,372.9,85z" />
		<path d="M372.9,169.2H132.3c-6.6,0-12,5.4-12,12c0,6.6,5.4,12,12,12h240.6c6.6,0,12-5.4,12-12C385,174.6,379.6,169.2,372.9,169.2z
			" />
	</g>
</g>
</symbol><symbol viewBox="0 0 53 50" id="truelife-logo">
    <!-- Generator: Sketch 52.3 (67297) - http://www.bohemiancoding.com/sketch -->
    <title>Combined Shape</title>
    <desc>Created with Sketch.</desc>
    <g id="truelife-logo_Page-1" stroke="none" stroke-width="1">
        <g id="truelife-logo_600px" transform="translate(-30.000000, -30.000000)">
            <path d="M60.2083333,68.5722222 L60.2389706,68.5416667 L82.6041667,68.5416667 L82.6041667,80 L60.2083333,80 L48.2291667,80 L48.2291667,46.1458333 L60.2083333,46.1458333 L60.2083333,68.5722222 Z M41.5327381,30 L78.4375,30 L78.4375,41.4583333 L30,41.4583333 L41.5327381,30 Z" id="truelife-logo_Combined-Shape" />
        </g>
    </g>
</symbol></defs></svg>